<?xml version="1.0" encoding="UTF-8" standalone="no"?>
<!-- Created with Inkscape (http://www.inkscape.org/) -->

<svg
   xmlns:dc="http://purl.org/dc/elements/1.1/"
   xmlns:cc="http://creativecommons.org/ns#"
   xmlns:rdf="http://www.w3.org/1999/02/22-rdf-syntax-ns#"
   xmlns:svg="http://www.w3.org/2000/svg"
   xmlns="http://www.w3.org/2000/svg"
   xmlns:sodipodi="http://sodipodi.sourceforge.net/DTD/sodipodi-0.dtd"
   xmlns:inkscape="http://www.inkscape.org/namespaces/inkscape"
   id="svg2985"
   version="1.1"
   inkscape:version="0.48.4 r9939"
   width="342.5"
   height="247.5"
   xml:space="preserve"
   sodipodi:docname="kamland.svg"><metadata
     id="metadata2991"><rdf:RDF><cc:Work
         rdf:about=""><dc:format>image/svg+xml</dc:format><dc:type
           rdf:resource="http://purl.org/dc/dcmitype/StillImage" /><dc:title /></cc:Work></rdf:RDF></metadata><defs
     id="defs2989"><clipPath
       clipPathUnits="userSpaceOnUse"
       id="clipPath3001"><path
         d="m 0,1973.23 2740,0 0,-1969.99953 -2740,0 L 0,1973.23 z"
         id="path3003" /></clipPath></defs><sodipodi:namedview
     pagecolor="#ffffff"
     bordercolor="#666666"
     borderopacity="1"
     objecttolerance="10"
     gridtolerance="10"
     guidetolerance="10"
     inkscape:pageopacity="0"
     inkscape:pageshadow="2"
     inkscape:window-width="1600"
     inkscape:window-height="838"
     id="namedview2987"
     showgrid="false"
     inkscape:zoom="16.743434"
     inkscape:cx="103.74692"
     inkscape:cy="115.77197"
     inkscape:window-x="-8"
     inkscape:window-y="-8"
     inkscape:window-maximized="1"
     inkscape:current-layer="g2999" /><g
     id="g2993"
     inkscape:groupmode="layer"
     inkscape:label="ink_ext_XXXXXX"
     transform="matrix(1.25,0,0,-1.25,0,247.5)"><g
       id="g2995"
       transform="scale(0.1,0.1)"><g
         id="g2997"><g
           id="g2999"
           clip-path="url(#clipPath3001)"><path
             d="m 0,9.98828 2732.58,0 0,1963.24002 -2732.58,0 L 0,9.98828 z"
             style="fill:#ffffff;fill-opacity:1;fill-rule:evenodd;stroke:none"
             id="path3005" /><path
             d="m 355,304.75 2104.14,0 0,1472.89 -2104.14,0 0,-1472.89 z"
             style="fill:#ffffff;fill-opacity:1;fill-rule:evenodd;stroke:none"
             id="path3007" /><path
             d="m 355,304.75 2104.14,0 0,1472.89 -2104.14,0 0,-1472.89 z"
             style="fill:none;stroke:#000000;stroke-opacity:1;stroke-width:2.78077;stroke-linecap:butt;stroke-linejoin:miter;stroke-miterlimit:10;stroke-dasharray:none"
             id="path3009" /><path
             d="m 355,304.75 2104.14,0 0,1472.89 -2104.14,0 0,-1472.89 z"
             style="fill:#ffffff;fill-opacity:1;fill-rule:evenodd;stroke:none"
             id="path3011" /><path
             d="m 355,304.75 2104.14,0 0,1472.89 -2104.14,0 0,-1472.89 z"
             style="fill:none;stroke:#000000;stroke-opacity:1;stroke-width:2.78077;stroke-linecap:butt;stroke-linejoin:miter;stroke-miterlimit:10;stroke-dasharray:none"
             id="path3013" /><path
             d="m 355,304.75 2104.14,0"
             style="fill:none;stroke:#000000;stroke-opacity:1;stroke-width:2.78077;stroke-linecap:butt;stroke-linejoin:miter;stroke-miterlimit:10;stroke-dasharray:none"
             id="path3015" /><path
             d="m 355,304.75 2104.14,0"
             style="fill:none;stroke:#000000;stroke-opacity:1;stroke-width:2.78077;stroke-linecap:butt;stroke-linejoin:miter;stroke-miterlimit:10;stroke-dasharray:none"
             id="path3017" /><g
             id="g3019"
             transform="scale(10,10)"><text
   transform="matrix(1,0,0,-1,68.9629,4.42891)"
   id="text3021"><tspan
     style="fill:#000000;fill-opacity:1;fill-rule:nonzero;stroke:none;font-family:Times New Roman;font-variant:normal;font-weight:normal;font-size:10.9854;writing-mode:lr;-inkscape-font-specification:TimesNewRomanPSMT"
     x="0 7.92979255 10.98554649 15.25722525 18.31297919 23.19199825 28.68469825 33.56410795 38.44312701 41.18947701 44.84761521 48.50575341 53.99845341 62.54677917 65.29312917 75.05737975 80.55007975 86.04277975 91.53547975 94.28182975 100.99570358 104.65384178 109.53325148 114.41227054 119.90497054 122.65132054 126.30945874 131.18886843 139.7371942"
     y="0"
     sodipodi:role="line"
     id="tspan3023">Distance from Muon Track (cm)</tspan></text>


</g><path
             d="m 355,350.18 0,-45.43"
             style="fill:none;stroke:#000000;stroke-opacity:1;stroke-width:2.78077;stroke-linecap:butt;stroke-linejoin:miter;stroke-miterlimit:10;stroke-dasharray:none"
             id="path3025" /><path
             d="m 425.469,327.02 0,-22.27"
             style="fill:none;stroke:#000000;stroke-opacity:1;stroke-width:2.78077;stroke-linecap:butt;stroke-linejoin:miter;stroke-miterlimit:10;stroke-dasharray:none"
             id="path3027" /><path
             d="m 495.898,327.02 0,-22.27"
             style="fill:none;stroke:#000000;stroke-opacity:1;stroke-width:2.78077;stroke-linecap:butt;stroke-linejoin:miter;stroke-miterlimit:10;stroke-dasharray:none"
             id="path3029" /><path
             d="m 565.43,327.02 0,-22.27"
             style="fill:none;stroke:#000000;stroke-opacity:1;stroke-width:2.78077;stroke-linecap:butt;stroke-linejoin:miter;stroke-miterlimit:10;stroke-dasharray:none"
             id="path3031" /><path
             d="m 635.859,350.18 0,-45.43"
             style="fill:none;stroke:#000000;stroke-opacity:1;stroke-width:2.78077;stroke-linecap:butt;stroke-linejoin:miter;stroke-miterlimit:10;stroke-dasharray:none"
             id="path3033" /><path
             d="m 706.328,327.02 0,-22.27"
             style="fill:none;stroke:#000000;stroke-opacity:1;stroke-width:2.78077;stroke-linecap:butt;stroke-linejoin:miter;stroke-miterlimit:10;stroke-dasharray:none"
             id="path3035" /><path
             d="m 775.82,327.02 0,-22.27"
             style="fill:none;stroke:#000000;stroke-opacity:1;stroke-width:2.78077;stroke-linecap:butt;stroke-linejoin:miter;stroke-miterlimit:10;stroke-dasharray:none"
             id="path3037" /><path
             d="m 846.289,327.02 0,-22.27"
             style="fill:none;stroke:#000000;stroke-opacity:1;stroke-width:2.78077;stroke-linecap:butt;stroke-linejoin:miter;stroke-miterlimit:10;stroke-dasharray:none"
             id="path3039" /><path
             d="m 916.719,350.18 0,-45.43"
             style="fill:none;stroke:#000000;stroke-opacity:1;stroke-width:2.78077;stroke-linecap:butt;stroke-linejoin:miter;stroke-miterlimit:10;stroke-dasharray:none"
             id="path3041" /><path
             d="m 986.25,327.02 0,-22.27"
             style="fill:none;stroke:#000000;stroke-opacity:1;stroke-width:2.78077;stroke-linecap:butt;stroke-linejoin:miter;stroke-miterlimit:10;stroke-dasharray:none"
             id="path3043" /><path
             d="m 1056.68,327.02 0,-22.27"
             style="fill:none;stroke:#000000;stroke-opacity:1;stroke-width:2.78077;stroke-linecap:butt;stroke-linejoin:miter;stroke-miterlimit:10;stroke-dasharray:none"
             id="path3045" /><path
             d="m 1127.15,327.02 0,-22.27"
             style="fill:none;stroke:#000000;stroke-opacity:1;stroke-width:2.78077;stroke-linecap:butt;stroke-linejoin:miter;stroke-miterlimit:10;stroke-dasharray:none"
             id="path3047" /><path
             d="m 1196.64,350.18 0,-45.43"
             style="fill:none;stroke:#000000;stroke-opacity:1;stroke-width:2.78077;stroke-linecap:butt;stroke-linejoin:miter;stroke-miterlimit:10;stroke-dasharray:none"
             id="path3049" /><path
             d="m 1267.11,327.02 0,-22.27"
             style="fill:none;stroke:#000000;stroke-opacity:1;stroke-width:2.78077;stroke-linecap:butt;stroke-linejoin:miter;stroke-miterlimit:10;stroke-dasharray:none"
             id="path3051" /><path
             d="m 1337.54,327.02 0,-22.27"
             style="fill:none;stroke:#000000;stroke-opacity:1;stroke-width:2.78077;stroke-linecap:butt;stroke-linejoin:miter;stroke-miterlimit:10;stroke-dasharray:none"
             id="path3053" /><path
             d="m 1407.07,327.02 0,-22.27"
             style="fill:none;stroke:#000000;stroke-opacity:1;stroke-width:2.78077;stroke-linecap:butt;stroke-linejoin:miter;stroke-miterlimit:10;stroke-dasharray:none"
             id="path3055" /><path
             d="m 1477.54,350.18 0,-45.43"
             style="fill:none;stroke:#000000;stroke-opacity:1;stroke-width:2.78077;stroke-linecap:butt;stroke-linejoin:miter;stroke-miterlimit:10;stroke-dasharray:none"
             id="path3057" /><path
             d="m 1547.97,327.02 0,-22.27"
             style="fill:none;stroke:#000000;stroke-opacity:1;stroke-width:2.78077;stroke-linecap:butt;stroke-linejoin:miter;stroke-miterlimit:10;stroke-dasharray:none"
             id="path3059" /><path
             d="m 1617.46,327.02 0,-22.27"
             style="fill:none;stroke:#000000;stroke-opacity:1;stroke-width:2.78077;stroke-linecap:butt;stroke-linejoin:miter;stroke-miterlimit:10;stroke-dasharray:none"
             id="path3061" /><path
             d="m 1687.93,327.02 0,-22.27"
             style="fill:none;stroke:#000000;stroke-opacity:1;stroke-width:2.78077;stroke-linecap:butt;stroke-linejoin:miter;stroke-miterlimit:10;stroke-dasharray:none"
             id="path3063" /><path
             d="m 1758.36,350.18 0,-45.43"
             style="fill:none;stroke:#000000;stroke-opacity:1;stroke-width:2.78077;stroke-linecap:butt;stroke-linejoin:miter;stroke-miterlimit:10;stroke-dasharray:none"
             id="path3065" /><path
             d="m 1827.89,327.02 0,-22.27"
             style="fill:none;stroke:#000000;stroke-opacity:1;stroke-width:2.78077;stroke-linecap:butt;stroke-linejoin:miter;stroke-miterlimit:10;stroke-dasharray:none"
             id="path3067" /><path
             d="m 1898.36,327.02 0,-22.27"
             style="fill:none;stroke:#000000;stroke-opacity:1;stroke-width:2.78077;stroke-linecap:butt;stroke-linejoin:miter;stroke-miterlimit:10;stroke-dasharray:none"
             id="path3069" /><path
             d="m 1968.79,327.02 0,-22.27"
             style="fill:none;stroke:#000000;stroke-opacity:1;stroke-width:2.78077;stroke-linecap:butt;stroke-linejoin:miter;stroke-miterlimit:10;stroke-dasharray:none"
             id="path3071" /><path
             d="m 2038.32,350.18 0,-45.43"
             style="fill:none;stroke:#000000;stroke-opacity:1;stroke-width:2.78077;stroke-linecap:butt;stroke-linejoin:miter;stroke-miterlimit:10;stroke-dasharray:none"
             id="path3073" /><path
             d="m 2108.75,327.02 0,-22.27"
             style="fill:none;stroke:#000000;stroke-opacity:1;stroke-width:2.78077;stroke-linecap:butt;stroke-linejoin:miter;stroke-miterlimit:10;stroke-dasharray:none"
             id="path3075" /><path
             d="m 2179.22,327.02 0,-22.27"
             style="fill:none;stroke:#000000;stroke-opacity:1;stroke-width:2.78077;stroke-linecap:butt;stroke-linejoin:miter;stroke-miterlimit:10;stroke-dasharray:none"
             id="path3077" /><path
             d="m 2248.71,327.02 0,-22.27"
             style="fill:none;stroke:#000000;stroke-opacity:1;stroke-width:2.78077;stroke-linecap:butt;stroke-linejoin:miter;stroke-miterlimit:10;stroke-dasharray:none"
             id="path3079" /><path
             d="m 2319.18,350.18 0,-45.43"
             style="fill:none;stroke:#000000;stroke-opacity:1;stroke-width:2.78077;stroke-linecap:butt;stroke-linejoin:miter;stroke-miterlimit:10;stroke-dasharray:none"
             id="path3081" /><path
             d="m 2319.18,350.18 0,-45.43"
             style="fill:none;stroke:#000000;stroke-opacity:1;stroke-width:2.78077;stroke-linecap:butt;stroke-linejoin:miter;stroke-miterlimit:10;stroke-dasharray:none"
             id="path3083" /><path
             d="m 2389.61,327.02 0,-22.27"
             style="fill:none;stroke:#000000;stroke-opacity:1;stroke-width:2.78077;stroke-linecap:butt;stroke-linejoin:miter;stroke-miterlimit:10;stroke-dasharray:none"
             id="path3085" /><g
             id="g3087"
             transform="scale(10,10)"><text
   transform="matrix(1,0,0,-1,32.627,20.1871)"
   id="text3089"><tspan
     style="fill:#000000;fill-opacity:1;fill-rule:nonzero;stroke:none;font-family:Times New Roman;font-variant:normal;font-weight:normal;font-size:10.9854;writing-mode:lr;-inkscape-font-specification:TimesNewRomanPSMT"
     x="0 22.61685137 28.10955137 33.60225137 50.42452396 55.91722396 61.40992396 78.60328335 84.09598335 89.58868335 106.78204274 112.27474274 117.76744274 132.179947 137.672647 143.165347 148.658047 159.98772943 165.48042943 170.97312943 176.46582943 188.07364023 193.56634023 199.05904023 204.55174023"
     y="0"
     sodipodi:role="line"
     id="tspan3091">0200400600800100012001400</tspan></text>


</g><path
             d="m 355,304.75 0,1472.89"
             style="fill:none;stroke:#000000;stroke-opacity:1;stroke-width:2.78077;stroke-linecap:butt;stroke-linejoin:miter;stroke-miterlimit:10;stroke-dasharray:none"
             id="path3093" /><g
             id="g3095"
             transform="scale(10,10)"><text
   transform="matrix(0,1,1,0,8.61992,74.5051)"
   id="text3097"><tspan
     style="fill:#000000;fill-opacity:1;fill-rule:nonzero;stroke:none;font-family:Times New Roman;font-variant:normal;font-weight:normal;font-size:10.9854;writing-mode:lr;-inkscape-font-specification:TimesNewRomanPSMT"
     x="0 6.71386774 12.20656774 17.08597743 22.57867743 25.63443137 29.90610402 32.96185186 38.45455186 43.94725186 46.69360186 51.57301155"
     y="0"
     sodipodi:role="line"
     id="tspan3099">Events/10 cm</tspan></text>


</g><path
             d="m 417.109,304.75 -62.109,0"
             style="fill:none;stroke:#000000;stroke-opacity:1;stroke-width:2.78077;stroke-linecap:butt;stroke-linejoin:miter;stroke-miterlimit:10;stroke-dasharray:none"
             id="path3101" /><g
             id="g3103"
             transform="scale(10,10)"><text
   transform="matrix(1,0,0,-1,27.4371,29.1781)"
   id="text3105"><tspan
     style="fill:#000000;fill-opacity:1;fill-rule:nonzero;stroke:none;font-family:Times New Roman;font-variant:normal;font-weight:normal;font-size:7.20913;writing-mode:lr;-inkscape-font-specification:TimesNewRomanPSMT"
     x="0 2.40064029"
     y="0"
     sodipodi:role="line"
     id="tspan3107">-1</tspan></text>


<text
   transform="matrix(1,0,0,-1,16.7773,24.35818)"
   id="text3109"><tspan
     style="fill:#000000;fill-opacity:1;fill-rule:nonzero;stroke:none;font-family:Times New Roman;font-variant:normal;font-weight:normal;font-size:10.9854;writing-mode:lr;-inkscape-font-specification:TimesNewRomanPSMT"
     x="0 5.4927"
     y="0"
     sodipodi:role="line"
     id="tspan3111">10</tspan></text>


</g><path
             d="m 385.59,399.32 -30.59,0"
             style="fill:none;stroke:#000000;stroke-opacity:1;stroke-width:2.78077;stroke-linecap:butt;stroke-linejoin:miter;stroke-miterlimit:10;stroke-dasharray:none"
             id="path3113" /><path
             d="m 385.59,453.969 -30.59,0"
             style="fill:none;stroke:#000000;stroke-opacity:1;stroke-width:2.78077;stroke-linecap:butt;stroke-linejoin:miter;stroke-miterlimit:10;stroke-dasharray:none"
             id="path3115" /><path
             d="m 385.59,492.922 -30.59,0"
             style="fill:none;stroke:#000000;stroke-opacity:1;stroke-width:2.78077;stroke-linecap:butt;stroke-linejoin:miter;stroke-miterlimit:10;stroke-dasharray:none"
             id="path3117" /><path
             d="m 385.59,523.5 -30.59,0"
             style="fill:none;stroke:#000000;stroke-opacity:1;stroke-width:2.78077;stroke-linecap:butt;stroke-linejoin:miter;stroke-miterlimit:10;stroke-dasharray:none"
             id="path3119" /><path
             d="m 385.59,548.539 -30.59,0"
             style="fill:none;stroke:#000000;stroke-opacity:1;stroke-width:2.78077;stroke-linecap:butt;stroke-linejoin:miter;stroke-miterlimit:10;stroke-dasharray:none"
             id="path3121" /><path
             d="m 385.59,569.871 -30.59,0"
             style="fill:none;stroke:#000000;stroke-opacity:1;stroke-width:2.78077;stroke-linecap:butt;stroke-linejoin:miter;stroke-miterlimit:10;stroke-dasharray:none"
             id="path3123" /><path
             d="m 385.59,587.488 -30.59,0"
             style="fill:none;stroke:#000000;stroke-opacity:1;stroke-width:2.78077;stroke-linecap:butt;stroke-linejoin:miter;stroke-miterlimit:10;stroke-dasharray:none"
             id="path3125" /><path
             d="m 385.59,603.23 -30.59,0"
             style="fill:none;stroke:#000000;stroke-opacity:1;stroke-width:2.78077;stroke-linecap:butt;stroke-linejoin:miter;stroke-miterlimit:10;stroke-dasharray:none"
             id="path3127" /><path
             d="m 417.109,618.07 -62.109,0"
             style="fill:none;stroke:#000000;stroke-opacity:1;stroke-width:2.78077;stroke-linecap:butt;stroke-linejoin:miter;stroke-miterlimit:10;stroke-dasharray:none"
             id="path3129" /><g
             id="g3131"
             transform="scale(10,10)"><text
   transform="matrix(1,0,0,-1,27.3199,57.1711)"
   id="text3133"><tspan
     style="fill:#000000;fill-opacity:1;fill-rule:nonzero;stroke:none;font-family:Times New Roman;font-variant:normal;font-weight:normal;font-size:10.9854;writing-mode:lr;-inkscape-font-specification:TimesNewRomanPSMT"
     x="0"
     y="0"
     id="tspan3135">1</tspan></text>


</g><path
             d="m 385.59,712.602 -30.59,0"
             style="fill:none;stroke:#000000;stroke-opacity:1;stroke-width:2.78077;stroke-linecap:butt;stroke-linejoin:miter;stroke-miterlimit:10;stroke-dasharray:none"
             id="path3137" /><path
             d="m 385.59,767.289 -30.59,0"
             style="fill:none;stroke:#000000;stroke-opacity:1;stroke-width:2.78077;stroke-linecap:butt;stroke-linejoin:miter;stroke-miterlimit:10;stroke-dasharray:none"
             id="path3139" /><path
             d="m 385.59,806.238 -30.59,0"
             style="fill:none;stroke:#000000;stroke-opacity:1;stroke-width:2.78077;stroke-linecap:butt;stroke-linejoin:miter;stroke-miterlimit:10;stroke-dasharray:none"
             id="path3141" /><path
             d="m 385.59,836.82 -30.59,0"
             style="fill:none;stroke:#000000;stroke-opacity:1;stroke-width:2.78077;stroke-linecap:butt;stroke-linejoin:miter;stroke-miterlimit:10;stroke-dasharray:none"
             id="path3143" /><path
             d="m 385.59,861.82 -30.59,0"
             style="fill:none;stroke:#000000;stroke-opacity:1;stroke-width:2.78077;stroke-linecap:butt;stroke-linejoin:miter;stroke-miterlimit:10;stroke-dasharray:none"
             id="path3145" /><path
             d="m 385.59,883.148 -30.59,0"
             style="fill:none;stroke:#000000;stroke-opacity:1;stroke-width:2.78077;stroke-linecap:butt;stroke-linejoin:miter;stroke-miterlimit:10;stroke-dasharray:none"
             id="path3147" /><path
             d="m 385.59,900.77 -30.59,0"
             style="fill:none;stroke:#000000;stroke-opacity:1;stroke-width:2.78077;stroke-linecap:butt;stroke-linejoin:miter;stroke-miterlimit:10;stroke-dasharray:none"
             id="path3149" /><path
             d="m 385.59,917.449 -30.59,0"
             style="fill:none;stroke:#000000;stroke-opacity:1;stroke-width:2.78077;stroke-linecap:butt;stroke-linejoin:miter;stroke-miterlimit:10;stroke-dasharray:none"
             id="path3151" /><path
             d="m 417.109,931.352 -62.109,0"
             style="fill:none;stroke:#000000;stroke-opacity:1;stroke-width:2.78077;stroke-linecap:butt;stroke-linejoin:miter;stroke-miterlimit:10;stroke-dasharray:none"
             id="path3153" /><g
             id="g3155"
             transform="scale(10,10)"><text
   transform="matrix(1,0,0,-1,21.8281,88.5012)"
   id="text3157"><tspan
     style="fill:#000000;fill-opacity:1;fill-rule:nonzero;stroke:none;font-family:Times New Roman;font-variant:normal;font-weight:normal;font-size:10.9854;writing-mode:lr;-inkscape-font-specification:TimesNewRomanPSMT"
     x="0 5.4927"
     y="0"
     sodipodi:role="line"
     id="tspan3159">10</tspan></text>


</g><path
             d="m 385.59,1025.93 -30.59,0"
             style="fill:none;stroke:#000000;stroke-opacity:1;stroke-width:2.78077;stroke-linecap:butt;stroke-linejoin:miter;stroke-miterlimit:10;stroke-dasharray:none"
             id="path3161" /><path
             d="m 385.59,1080.57 -30.59,0"
             style="fill:none;stroke:#000000;stroke-opacity:1;stroke-width:2.78077;stroke-linecap:butt;stroke-linejoin:miter;stroke-miterlimit:10;stroke-dasharray:none"
             id="path3163" /><path
             d="m 385.59,1120.46 -30.59,0"
             style="fill:none;stroke:#000000;stroke-opacity:1;stroke-width:2.78077;stroke-linecap:butt;stroke-linejoin:miter;stroke-miterlimit:10;stroke-dasharray:none"
             id="path3165" /><path
             d="m 385.59,1150.1 -30.59,0"
             style="fill:none;stroke:#000000;stroke-opacity:1;stroke-width:2.78077;stroke-linecap:butt;stroke-linejoin:miter;stroke-miterlimit:10;stroke-dasharray:none"
             id="path3167" /><path
             d="m 385.59,1175.14 -30.59,0"
             style="fill:none;stroke:#000000;stroke-opacity:1;stroke-width:2.78077;stroke-linecap:butt;stroke-linejoin:miter;stroke-miterlimit:10;stroke-dasharray:none"
             id="path3169" /><path
             d="m 385.59,1196.47 -30.59,0"
             style="fill:none;stroke:#000000;stroke-opacity:1;stroke-width:2.78077;stroke-linecap:butt;stroke-linejoin:miter;stroke-miterlimit:10;stroke-dasharray:none"
             id="path3171" /><path
             d="m 385.59,1214.09 -30.59,0"
             style="fill:none;stroke:#000000;stroke-opacity:1;stroke-width:2.78077;stroke-linecap:butt;stroke-linejoin:miter;stroke-miterlimit:10;stroke-dasharray:none"
             id="path3173" /><path
             d="m 385.59,1230.77 -30.59,0"
             style="fill:none;stroke:#000000;stroke-opacity:1;stroke-width:2.78077;stroke-linecap:butt;stroke-linejoin:miter;stroke-miterlimit:10;stroke-dasharray:none"
             id="path3175" /><path
             d="m 417.109,1244.68 -62.109,0"
             style="fill:none;stroke:#000000;stroke-opacity:1;stroke-width:2.78077;stroke-linecap:butt;stroke-linejoin:miter;stroke-miterlimit:10;stroke-dasharray:none"
             id="path3177" /><g
             id="g3179"
             transform="scale(10,10)"><text
   transform="matrix(1,0,0,-1,29.198,123.168)"
   id="text3181"><tspan
     style="fill:#000000;fill-opacity:1;fill-rule:nonzero;stroke:none;font-family:Times New Roman;font-variant:normal;font-weight:normal;font-size:7.20913;writing-mode:lr;-inkscape-font-specification:TimesNewRomanPSMT"
     x="0"
     y="0"
     id="tspan3183">2</tspan></text>


<text
   transform="matrix(1,0,0,-1,18.5382,118.44066)"
   id="text3185"><tspan
     style="fill:#000000;fill-opacity:1;fill-rule:nonzero;stroke:none;font-family:Times New Roman;font-variant:normal;font-weight:normal;font-size:10.9854;writing-mode:lr;-inkscape-font-specification:TimesNewRomanPSMT"
     x="0 5.4927"
     y="0"
     sodipodi:role="line"
     id="tspan3187">10</tspan></text>


</g><path
             d="m 385.59,1339.21 -30.59,0"
             style="fill:none;stroke:#000000;stroke-opacity:1;stroke-width:2.78077;stroke-linecap:butt;stroke-linejoin:miter;stroke-miterlimit:10;stroke-dasharray:none"
             id="path3189" /><path
             d="m 385.59,1393.89 -30.59,0"
             style="fill:none;stroke:#000000;stroke-opacity:1;stroke-width:2.78077;stroke-linecap:butt;stroke-linejoin:miter;stroke-miterlimit:10;stroke-dasharray:none"
             id="path3191" /><path
             d="m 385.59,1433.74 -30.59,0"
             style="fill:none;stroke:#000000;stroke-opacity:1;stroke-width:2.78077;stroke-linecap:butt;stroke-linejoin:miter;stroke-miterlimit:10;stroke-dasharray:none"
             id="path3193" /><path
             d="m 385.59,1463.43 -30.59,0"
             style="fill:none;stroke:#000000;stroke-opacity:1;stroke-width:2.78077;stroke-linecap:butt;stroke-linejoin:miter;stroke-miterlimit:10;stroke-dasharray:none"
             id="path3195" /><path
             d="m 385.59,1488.43 -30.59,0"
             style="fill:none;stroke:#000000;stroke-opacity:1;stroke-width:2.78077;stroke-linecap:butt;stroke-linejoin:miter;stroke-miterlimit:10;stroke-dasharray:none"
             id="path3197" /><path
             d="m 385.59,1509.75 -30.59,0"
             style="fill:none;stroke:#000000;stroke-opacity:1;stroke-width:2.78077;stroke-linecap:butt;stroke-linejoin:miter;stroke-miterlimit:10;stroke-dasharray:none"
             id="path3199" /><path
             d="m 385.59,1527.37 -30.59,0"
             style="fill:none;stroke:#000000;stroke-opacity:1;stroke-width:2.78077;stroke-linecap:butt;stroke-linejoin:miter;stroke-miterlimit:10;stroke-dasharray:none"
             id="path3201" /><path
             d="m 385.59,1544.05 -30.59,0"
             style="fill:none;stroke:#000000;stroke-opacity:1;stroke-width:2.78077;stroke-linecap:butt;stroke-linejoin:miter;stroke-miterlimit:10;stroke-dasharray:none"
             id="path3203" /><path
             d="m 417.109,1557.96 -62.109,0"
             style="fill:none;stroke:#000000;stroke-opacity:1;stroke-width:2.78077;stroke-linecap:butt;stroke-linejoin:miter;stroke-miterlimit:10;stroke-dasharray:none"
             id="path3205" /><g
             id="g3207"
             transform="scale(10,10)"><text
   transform="matrix(1,0,0,-1,29.568,154.777)"
   id="text3209"><tspan
     style="fill:#000000;fill-opacity:1;fill-rule:nonzero;stroke:none;font-family:Times New Roman;font-variant:normal;font-weight:normal;font-size:7.20913;writing-mode:lr;-inkscape-font-specification:TimesNewRomanPSMT"
     x="0"
     y="0"
     id="tspan3211">3</tspan></text>


<text
   transform="matrix(1,0,0,-1,18.9086,149.67895)"
   id="text3213"><tspan
     style="fill:#000000;fill-opacity:1;fill-rule:nonzero;stroke:none;font-family:Times New Roman;font-variant:normal;font-weight:normal;font-size:10.9854;writing-mode:lr;-inkscape-font-specification:TimesNewRomanPSMT"
     x="0 5.4927"
     y="0"
     sodipodi:role="line"
     id="tspan3215">10</tspan></text>


</g><path
             d="m 385.59,1652.53 -30.59,0"
             style="fill:none;stroke:#000000;stroke-opacity:1;stroke-width:2.78077;stroke-linecap:butt;stroke-linejoin:miter;stroke-miterlimit:10;stroke-dasharray:none"
             id="path3217" /><path
             d="m 385.59,1708.11 -30.59,0"
             style="fill:none;stroke:#000000;stroke-opacity:1;stroke-width:2.78077;stroke-linecap:butt;stroke-linejoin:miter;stroke-miterlimit:10;stroke-dasharray:none"
             id="path3219" /><path
             d="m 385.59,1747.06 -30.59,0"
             style="fill:none;stroke:#000000;stroke-opacity:1;stroke-width:2.78077;stroke-linecap:butt;stroke-linejoin:miter;stroke-miterlimit:10;stroke-dasharray:none"
             id="path3221" /><path
             d="m 355,1411.51 13.91,0 0,126.06 14.84,0 0,28.75 13.91,0 0,-6.53 13.899,0 0,-20.39 13.91,0 0,-25.94 13.91,0 0,-32.46 13.859,0 0,-28.71 13.953,0 0,-31.52 13.86,0 0,-30.59 14.847,0 0,-26.87 13.903,0 0,-25.98 13.91,0 0,-25 13.91,0 0,-23.16 13.899,0 0,-23.21 13.91,0 0,-16.68 13.91,0 0,-24.1 14.801,0 0,-18.51 13.91,0 0,-13.91 13.898,0 0,-21.33 13.91,0 0,-12.07 13.911,0 0,-21.29 13.902,0 0,-4.64 13.906,0 0,-29.65 13.902,0 0,1.83 14.848,0 0,-22.22 13.902,0 0,-5.59 13.872,0 0,2.77 13.91,0 0,-9.25 13.898,0 0,-6.49 13.91,0 0,-0.94 13.91,0 0,-18.51 14.84,0 0,-3.71 13.91,0 0,-16.68 13.899,0 0,-20.39 13.91,0 0,-0.94 13.91,0 0,-6.48 13.903,0 0,-11.141 13.91,0 0,-7.418 13.898,0 0,-10.191 14.809,0 0,-20.399 13.91,0 0,1.879 13.902,0 0,-17.621 13.91,0 0,-14.84 13.899,0 0,10.192 13.91,0 0,-32.422 28.71,0 0,-13.008 13.91,0 0,-5.539 13.9,0 0,-22.231 13.91,0 0,4.61 13.91,0 0,-12.031 13.9,0 0,-20.391 13.91,0 0,-1.879 13.9,0 0,-15.738 14.85,0 0,-17.621 13.9,0 0,17.621 13.91,0 0,-38.942 13.91,0 0,12.961 13.86,0 0,-36.133 13.91,0 0,12.032 13.91,0 0,-13.86 14.84,0 0,-13.011 13.91,0 0,-1.84 13.9,0 0,-1.867 13.91,0 0,-25.942 27.81,0 0,33.36 13.91,0 0,-60.239 13.9,0 0,-19.492 14.81,0 0,-16.68 13.91,0 0,-3.711 13.9,0 0,-46.328 13.91,0 0,53.75 13.9,0 0,-14.8 13.91,0 0,7.378 13.91,0 0,-37.066 14.8,0 0,60.27 13.95,0 0,-55.622 13.86,0 0,-36.128 27.82,0 0,40.777 13.9,0 0,-66.758 13.91,0 0,-74.141 13.91,0 0,50.981 14.84,0 0,-63.992 13.91,0 0,72.312 13.9,0 0,-86.179 13.91,0 0,38.91 13.9,0 0,-25.043 13.87,0 0,-30.578 13.91,0 0,-93.602 14.84,0 0,-25.039 13.91,0 0,101.059 13.9,0 0,-21.329 13.91,0 0,-54.691 13.91,0 0,-25.039 41.71,0 0,25.039 14.81,0 0,29.652 13.91,0 0,-54.691 13.9,0 0,118.641 13.91,0 0,-63.95 13.9,0 0,-54.691 645.16,0"
             style="fill:none;stroke:#000000;stroke-opacity:1;stroke-width:2.78077;stroke-linecap:butt;stroke-linejoin:miter;stroke-miterlimit:10;stroke-dasharray:none"
             id="path3223" /></g></g></g></g></svg>